<?xml version="1.0" encoding="UTF-8" standalone="no"?>
<svg
   width="24px"
   height="30px"
   viewBox="0 0 24 30"
   version="1.1"
   id="svg3659"
   sodipodi:docname="CustomLingotDesign.svg"
   inkscape:version="1.2.1 (9c6d41e410, 2022-07-14)"
   inkscape:export-filename="aed279fcbad509208b45ca7a17f3e8dc.png"
   inkscape:export-xdpi="96"
   inkscape:export-ydpi="96"
   xmlns:inkscape="http://www.inkscape.org/namespaces/inkscape"
   xmlns:sodipodi="http://sodipodi.sourceforge.net/DTD/sodipodi-0.dtd"
   xmlns="http://www.w3.org/2000/svg"
   xmlns:svg="http://www.w3.org/2000/svg">
  <defs
     id="defs3663">
    <clipPath
       clipPathUnits="userSpaceOnUse"
       id="clipPath4348">
      <path
         id="path4350"
         style="fill:#ff0000;fill-opacity:1;fill-rule:nonzero;stroke:none"
         d="M -25.714844,10.015625 V 38.269531 H -1.9902344 V 10.015625 Z m 9.703125,4.4375 c 0.171005,0 0.3419,0.169181 0.34375,0.507813 0.0011,0.19563 5.35e-4,0.39207 0,0.58789 0.032,-0.05654 0.0647,-0.111963 0.09766,-0.167969 0.03266,-0.0512 0.06349,-0.104097 0.09766,-0.154297 0.07832,-0.115064 0.170801,-0.218656 0.269531,-0.316406 0.02126,-0.02106 0.04249,-0.03117 0.06055,-0.0332 0.05418,-0.0061 0.08295,0.06144 0.01953,0.125 -0.09207,0.09227 -0.178673,0.188757 -0.251953,0.296875 -0.03247,0.0479 -0.06271,0.09764 -0.09375,0.146484 -0.0686,0.116753 -0.134607,0.23461 -0.199219,0.353516 -0.0024,0.28951 -0.0083,0.578155 -0.01953,0.867188 -0.01965,0.505956 -0.406761,0.617655 -0.589844,0.359375 -0.0012,0.0026 -0.0027,0.0052 -0.0039,0.0078 0.09381,0.181947 0.19443,0.35965 0.292969,0.539063 0.326036,0.59362 -0.273583,0.923708 -0.59961,0.330078 -0.0014,-0.0025 -0.0025,-0.0053 -0.0039,-0.0078 -0.0072,0.02655 -0.0146,0.05344 -0.02148,0.08008 -0.04594,0.177839 -0.09332,0.406751 -0.132813,0.585938 -0.01754,0.08126 -0.09499,0.435454 -0.113281,0.527344 -0.01388,0.06972 -0.02616,0.139074 -0.03906,0.208984 -0.02172,0.117734 -0.14089,0.09625 -0.11914,-0.02148 0.0131,-0.07092 0.02498,-0.142151 0.03906,-0.212891 0.01833,-0.09209 0.0957,-0.447837 0.113282,-0.529297 0.04027,-0.182686 0.08985,-0.41065 0.136718,-0.591797 0.01729,-0.06681 0.03534,-0.133057 0.05469,-0.199218 -0.07246,-0.132409 -0.145833,-0.264456 -0.214844,-0.398438 -0.125987,-0.242185 -0.253533,-0.484158 -0.367187,-0.732422 -0.167388,-0.365638 -0.01503,-0.612069 0.195312,-0.623047 0.143919,-0.0075 0.314536,0.09582 0.429688,0.345703 0.08742,0.189705 0.185058,0.374919 0.28125,0.560547 0.0025,-0.0053 0.0053,-0.01037 0.0078,-0.01563 -0.01997,-0.0687 -0.03299,-0.146434 -0.0293,-0.240234 0.02198,-0.558763 0.02233,-1.118601 0.01953,-1.677734 -0.0017,-0.338633 0.168838,-0.507813 0.339843,-0.507813 z m 1.166016,1.011719 c 0.171037,0 0.341797,0.169182 0.341797,0.507812 v 3.06836 c 0,0.256775 -0.09869,0.416445 -0.220703,0.478515 -0.01061,0.05672 -0.02585,0.115843 -0.04687,0.177735 -0.01075,0.03162 -0.02355,0.06125 -0.03125,0.09375 -0.08868,0.374307 -0.1203,0.78011 -0.15625,1.160156 -0.05893,0.622975 -0.07523,0.956959 -0.115235,1.595703 -0.09778,1.617159 -0.109745,3.237941 -0.197265,4.855469 -0.03991,0.662925 -0.101104,1.324341 -0.121094,1.988281 -0.02883,0.95737 -0.996157,0.928063 -0.966797,-0.0293 0.02059,-0.6716 0.07968,-1.34119 0.121094,-2.011719 0.08803,-1.620234 0.100339,-3.24343 0.199219,-4.863281 0.04092,-0.651081 0.05626,-1.005587 0.117187,-1.642578 0.04361,-0.455932 0.08774,-0.928327 0.207031,-1.373047 0.01421,-0.05298 0.03615,-0.102667 0.05469,-0.154297 0.11427,-0.318147 0.297415,-0.476892 0.472656,-0.509765 v -1.21875 c -0.0089,-0.108998 -0.01997,-0.217363 -0.03125,-0.326172 -0.08549,0.30457 -0.173031,0.608565 -0.261719,0.912109 -0.0472,0.16442 -0.09698,0.328444 -0.146484,0.492188 -0.0119,0.03936 -0.02225,0.07815 -0.03516,0.117187 -0.0067,0.02025 -0.0021,0.06006 -0.02344,0.06055 -0.03123,7.11e-4 -0.05685,-0.02087 -0.08398,-0.03906 h -0.002 c -0.009,2.04e-4 -0.01876,-6.76e-4 -0.02734,-0.0039 -0.0057,-0.0022 -0.006,-0.0081 -0.0039,-0.01367 0.0063,-0.04564 0.01243,-0.09316 0.01953,-0.138671 0.05386,-0.343712 0.119104,-0.685527 0.183594,-1.027344 0.02219,-0.117653 0.14134,-0.09421 0.11914,0.02344 -0.01615,0.08558 -0.03087,0.170239 -0.04687,0.25586 0.09305,-0.318192 0.184514,-0.637105 0.271485,-0.957032 -0.01483,-0.111675 -0.0312,-0.22289 -0.05078,-0.333984 -0.01039,-0.05896 0.01333,-0.09564 0.04297,-0.101563 0.02964,-0.0059 0.06573,0.01918 0.07617,0.07813 v -0.613282 c 0,-0.33863 0.17076,-0.507812 0.341797,-0.507812 z m 0.367187,6.255859 c 0.0023,-8.05e-4 0.0054,-3.98e-4 0.0078,0 0.0095,0.0016 0.01953,0.01397 0.01758,0.0332 -0.0091,0.09057 -0.01137,0.180525 -0.01367,0.271485 -0.0035,0.122231 -0.0023,0.244967 -0.0059,0.367187 -0.0037,0.08754 -0.02594,0.173673 -0.04883,0.257813 -0.01373,0.04365 -0.0067,0.02283 -0.02149,0.0625 -0.0135,0.03623 -0.05067,0.02254 -0.03711,-0.01367 0.01393,-0.03726 0.0084,-0.01708 0.02148,-0.05859 0.02211,-0.08117 0.04317,-0.163607 0.04687,-0.248047 0.0037,-0.122158 0.0024,-0.245018 0.0059,-0.367187 0.0015,-0.0613 0.003,-0.122334 0.0059,-0.183594 0.0012,-0.02542 0.0035,-0.05268 0.0059,-0.07813 5e-4,-0.0057 0.0013,-0.01188 0.002,-0.01758 0.0018,-0.0144 0.0068,-0.02297 0.01367,-0.02539 z" />
    </clipPath>
  </defs>
  <sodipodi:namedview
     id="namedview3661"
     pagecolor="#505050"
     bordercolor="#ffffff"
     borderopacity="1"
     inkscape:showpageshadow="0"
     inkscape:pageopacity="0"
     inkscape:pagecheckerboard="1"
     inkscape:deskcolor="#505050"
     showgrid="false"
     inkscape:zoom="8"
     inkscape:cx="-2.3125"
     inkscape:cy="-5.625"
     inkscape:window-width="1920"
     inkscape:window-height="1057"
     inkscape:window-x="-8"
     inkscape:window-y="-8"
     inkscape:window-maximized="1"
     inkscape:current-layer="svg3659" />
  <g
     id="Page-1"
     stroke="none"
     stroke-width="1"
     fill="none"
     fill-rule="evenodd">
    <g
       id="lingot"
       transform="translate(1.000000, 1.000000)"
       fill-rule="nonzero" />
  </g>
  <path
     d="m 3.12,5.5383956 6.475,-3.908 c 1.394192,-0.84152101 3.139808,-0.84152101 4.534,0 l 6.475,3.907 c 1.316114,0.794393 2.1204,2.219724 2.12,3.757 v 9.6660004 c 0,1.536919 -0.804191,2.961791 -2.12,3.756 l -6.475,3.907 c -1.394192,0.841521 -3.139808,0.841521 -4.534,0 l -6.475,-3.907 C 1.804191,21.922187 1,20.497315 1,18.960396 V 9.2943956 c 0,-1.538 0.804,-2.962 2.12,-3.757 z"
     id="Path"
     stroke="#ffffff"
     stroke-width="2"
     fill="#FC4848"
     style="fill:#3737c8" />
  <path
     style="fill:#000055"
     d="M 1.6413439,7.805159 0.97214973,17.430421 19.098239,4.5440684 C 20.15255,3.8116894 12.465127,1.492802 11.707336,0.55907902 Z"
     id="path3939-6"
     sodipodi:nodetypes="ccccc" />
  <path
     style="fill:#5f5fd3;stroke-width:1.15088"
     d="M 1.1001532,16.607967 1.0317332,20.856718 22.582928,7.2603444 C 22.921967,6.2266613 19.637116,5.3078766 18.805025,4.5084194 Z"
     id="path3939-0"
     sodipodi:nodetypes="ccccc" />
  <path
     d="M10.89,5.273 L10.89,8.438 C10.89,8.816 10.692,9.166 10.37,9.362 L7.422,11.145 C7.05578595,11.3664376 6.59336378,11.350749 6.243,11.105 L3.857,9.433 C3.55901568,9.22418286 3.38621247,8.87935269 3.39729469,8.51565441 C3.40837691,8.15195613 3.60185462,7.81828687 3.912,7.628 L9.245,4.352 C9.57820431,4.14746267 9.99593499,4.1389799 10.3371682,4.32982156 C10.6784014,4.52066323 10.8898476,4.88102607 10.89,5.272 L10.89,5.273 Z"
     id="path3655"
     fill="#FFFFFF"
     opacity="0.793"
     transform="translate(1,1)"
     style="fill:#aaaaff;opacity:1" />
  <path
     style="opacity:1;fill:none;stroke-width:0.0625"
     d="m -14.702008,36.126256 c -0.481549,-0.13529 -0.697864,-0.257191 -4.272157,-2.407506 -3.5954,-2.163013 -3.904945,-2.390866 -4.293339,-3.160269 -0.411474,-0.815125 -0.393824,-0.505971 -0.374772,-6.564531 L -23.625,18.5 l 0.138426,-0.33814 c 0.18371,-0.44876 0.524955,-0.95466 0.861383,-1.277015 0.150542,-0.144244 0.732482,-0.540182 1.293201,-0.879863 6.683949,-4.049096 6.465174,-3.933573 7.45699,-3.937648 0.965865,-0.004 1.036074,0.02999 4.96875,2.402961 3.8553113,2.326293 4.0569844,2.473111 4.4658106,3.251108 0.4230588,0.805083 0.4091894,0.588753 0.4091894,6.382402 0,3.554699 -0.021996,5.340047 -0.068561,5.564994 -0.1183219,0.571582 -0.4636444,1.206095 -0.8886725,1.632892 -0.3258594,0.327214 -0.9308806,0.716191 -3.8552669,2.478603 -1.9078116,1.149763 -3.6374996,2.159347 -3.8437496,2.243518 -0.475239,0.193946 -1.502822,0.246202 -2.014508,0.102444 z m -0.836948,-6.193155 c 0.0695,-0.08836 0.140297,-0.2782 0.157324,-0.421875 0.05562,-0.46938 0.164243,-2.537597 0.227071,-4.323726 0.102943,-2.926546 0.237983,-4.822359 0.382707,-5.3728 0.03583,-0.136291 0.118692,-0.315864 0.184128,-0.399054 0.110499,-0.140477 0.11891,-0.274224 0.118055,-1.8772 -10e-4,-1.9175 -0.01949,-2.024884 -0.353875,-2.057583 -0.274799,-0.02687 -0.395204,0.16409 -0.395204,0.626794 0,0.226915 -0.02626,0.361093 -0.07068,0.361093 -0.04655,0 -0.05791,0.07866 -0.03329,0.230413 0.0478,0.294566 -0.06748,0.756597 -0.207474,0.831519 -0.07597,0.04066 -0.130771,0.202491 -0.1845,0.544827 -0.04204,0.267845 -0.09202,0.553056 -0.111076,0.633803 -0.02756,0.116776 -0.01177,0.142349 0.07717,0.125 0.08305,-0.0162 0.164557,-0.198656 0.316854,-0.709312 l 0.205039,-0.6875 0.004,0.664687 c 0.0038,0.640575 -0.0016,0.66837 -0.150975,0.766214 -0.213545,0.139919 -0.337882,0.405166 -0.437253,0.932791 -0.149896,0.79588 -0.295608,2.933657 -0.377784,5.542558 -0.02111,0.670312 -0.07873,1.874631 -0.128041,2.676262 -0.04931,0.801632 -0.07186,1.532882 -0.05011,1.625 0.10337,0.437844 0.579746,0.603605 0.827931,0.288089 z m 1.093545,-7.761226 c 0.02553,-0.289015 0.01724,-0.453125 -0.0229,-0.453125 -0.03462,0 -0.06294,0.151172 -0.06294,0.335937 0,0.184766 -0.01594,0.43086 -0.03541,0.546875 -0.0242,0.144151 -0.01695,0.181255 0.0229,0.117188 0.03207,-0.05156 0.07633,-0.297656 0.09835,-0.546875 z m -2.325606,-3.331997 c 0.189975,-0.894513 0.157406,-0.824523 0.330811,-0.710904 0.223979,0.146757 0.480967,0.09508 0.548988,-0.110405 0.05102,-0.154129 -0.01547,-0.369876 -0.249922,-0.810935 -0.01239,-0.0233 0.05584,-0.05143 0.151611,-0.0625 0.244743,-0.0283 0.331268,-0.242937 0.332358,-0.824458 8.44e-4,-0.450914 0.0191,-0.521745 0.219422,-0.851516 0.120175,-0.19783 0.26049,-0.394539 0.311812,-0.437132 0.09314,-0.0773 0.07479,-0.188278 -0.03114,-0.188278 -0.03077,0 -0.155674,0.130607 -0.277561,0.290238 l -0.221613,0.290237 v -0.383987 c 0,-0.300655 -0.02713,-0.411116 -0.125,-0.508988 -0.140557,-0.140557 -0.207667,-0.152054 -0.372535,-0.06382 -0.192344,0.102939 -0.252402,0.419583 -0.253925,1.33877 l -0.0015,0.881299 -0.170415,-0.311207 c -0.278824,-0.509181 -0.711096,-0.555232 -0.751895,-0.0801 -0.01438,0.16745 0.05809,0.369253 0.298957,0.832451 l 0.317936,0.611418 -0.158331,0.705804 c -0.176306,0.785928 -0.193815,0.98263 -0.08422,0.946098 0.04076,-0.01359 0.124516,-0.262026 0.186118,-0.552084 z"
     id="path4492" />
  <path
     style="opacity:1;fill:none;stroke-width:0.0625"
     d="m -14.702008,36.126256 c -0.481549,-0.13529 -0.697864,-0.257191 -4.272157,-2.407506 -3.5954,-2.163013 -3.904945,-2.390866 -4.293339,-3.160269 -0.411474,-0.815125 -0.393824,-0.505971 -0.374772,-6.564531 L -23.625,18.5 l 0.138426,-0.33814 c 0.18371,-0.44876 0.524955,-0.95466 0.861383,-1.277015 0.150542,-0.144244 0.732482,-0.540182 1.293201,-0.879863 6.683949,-4.049096 6.465174,-3.933573 7.45699,-3.937648 0.965865,-0.004 1.036074,0.02999 4.96875,2.402961 3.8553113,2.326293 4.0569844,2.473111 4.4658106,3.251108 0.4230588,0.805083 0.4091894,0.588753 0.4091894,6.382402 0,3.554699 -0.021996,5.340047 -0.068561,5.564994 -0.1183219,0.571582 -0.4636444,1.206095 -0.8886725,1.632892 -0.3258594,0.327214 -0.9308806,0.716191 -3.8552669,2.478603 -1.9078116,1.149763 -3.6374996,2.159347 -3.8437496,2.243518 -0.475239,0.193946 -1.502822,0.246202 -2.014508,0.102444 z m -0.836948,-6.193155 c 0.0695,-0.08836 0.140297,-0.2782 0.157324,-0.421875 0.05562,-0.46938 0.164243,-2.537597 0.227071,-4.323726 0.102943,-2.926546 0.237983,-4.822359 0.382707,-5.3728 0.03583,-0.136291 0.118692,-0.315864 0.184128,-0.399054 0.110499,-0.140477 0.11891,-0.274224 0.118055,-1.8772 -10e-4,-1.9175 -0.01949,-2.024884 -0.353875,-2.057583 -0.274799,-0.02687 -0.395204,0.16409 -0.395204,0.626794 0,0.226915 -0.02626,0.361093 -0.07068,0.361093 -0.04655,0 -0.05791,0.07866 -0.03329,0.230413 0.0478,0.294566 -0.06748,0.756597 -0.207474,0.831519 -0.07597,0.04066 -0.130771,0.202491 -0.1845,0.544827 -0.04204,0.267845 -0.09202,0.553056 -0.111076,0.633803 -0.02756,0.116776 -0.01177,0.142349 0.07717,0.125 0.08305,-0.0162 0.164557,-0.198656 0.316854,-0.709312 l 0.205039,-0.6875 0.004,0.664687 c 0.0038,0.640575 -0.0016,0.66837 -0.150975,0.766214 -0.213545,0.139919 -0.337882,0.405166 -0.437253,0.932791 -0.149896,0.79588 -0.295608,2.933657 -0.377784,5.542558 -0.02111,0.670312 -0.07873,1.874631 -0.128041,2.676262 -0.04931,0.801632 -0.07186,1.532882 -0.05011,1.625 0.10337,0.437844 0.579746,0.603605 0.827931,0.288089 z m 1.093545,-7.761226 c 0.02553,-0.289015 0.01724,-0.453125 -0.0229,-0.453125 -0.03462,0 -0.06294,0.151172 -0.06294,0.335937 0,0.184766 -0.01594,0.43086 -0.03541,0.546875 -0.0242,0.144151 -0.01695,0.181255 0.0229,0.117188 0.03207,-0.05156 0.07633,-0.297656 0.09835,-0.546875 z m -2.325606,-3.331997 c 0.189975,-0.894513 0.157406,-0.824523 0.330811,-0.710904 0.223979,0.146757 0.480967,0.09508 0.548988,-0.110405 0.05102,-0.154129 -0.01547,-0.369876 -0.249922,-0.810935 -0.01239,-0.0233 0.05584,-0.05143 0.151611,-0.0625 0.244743,-0.0283 0.331268,-0.242937 0.332358,-0.824458 8.44e-4,-0.450914 0.0191,-0.521745 0.219422,-0.851516 0.120175,-0.19783 0.26049,-0.394539 0.311812,-0.437132 0.09314,-0.0773 0.07479,-0.188278 -0.03114,-0.188278 -0.03077,0 -0.155674,0.130607 -0.277561,0.290238 l -0.221613,0.290237 v -0.383987 c 0,-0.300655 -0.02713,-0.411116 -0.125,-0.508988 -0.140557,-0.140557 -0.207667,-0.152054 -0.372535,-0.06382 -0.192344,0.102939 -0.252402,0.419583 -0.253925,1.33877 l -0.0015,0.881299 -0.170415,-0.311207 c -0.278824,-0.509181 -0.711096,-0.555232 -0.751895,-0.0801 -0.01438,0.16745 0.05809,0.369253 0.298957,0.832451 l 0.317936,0.611418 -0.158331,0.705804 c -0.176306,0.785928 -0.193815,0.98263 -0.08422,0.946098 0.04076,-0.01359 0.124516,-0.262026 0.186118,-0.552084 z"
     id="path4494" />
  <path
     style="opacity:1;fill:none;stroke-width:0.0625"
     d="m -14.702008,36.126256 c -0.481549,-0.13529 -0.697864,-0.257191 -4.272157,-2.407506 -3.5954,-2.163013 -3.904945,-2.390866 -4.293339,-3.160269 -0.411474,-0.815125 -0.393824,-0.505971 -0.374772,-6.564531 L -23.625,18.5 l 0.138426,-0.33814 c 0.18371,-0.44876 0.524955,-0.95466 0.861383,-1.277015 0.150542,-0.144244 0.732482,-0.540182 1.293201,-0.879863 6.683949,-4.049096 6.465174,-3.933573 7.45699,-3.937648 0.965865,-0.004 1.036074,0.02999 4.96875,2.402961 3.8553113,2.326293 4.0569844,2.473111 4.4658106,3.251108 0.4230588,0.805083 0.4091894,0.588753 0.4091894,6.382402 0,3.554699 -0.021996,5.340047 -0.068561,5.564994 -0.1183219,0.571582 -0.4636444,1.206095 -0.8886725,1.632892 -0.3258594,0.327214 -0.9308806,0.716191 -3.8552669,2.478603 -1.9078116,1.149763 -3.6374996,2.159347 -3.8437496,2.243518 -0.475239,0.193946 -1.502822,0.246202 -2.014508,0.102444 z m -0.836948,-6.193155 c 0.0695,-0.08836 0.140297,-0.2782 0.157324,-0.421875 0.05562,-0.46938 0.164243,-2.537597 0.227071,-4.323726 0.102943,-2.926546 0.237983,-4.822359 0.382707,-5.3728 0.03583,-0.136291 0.118692,-0.315864 0.184128,-0.399054 0.110499,-0.140477 0.11891,-0.274224 0.118055,-1.8772 -10e-4,-1.9175 -0.01949,-2.024884 -0.353875,-2.057583 -0.274799,-0.02687 -0.395204,0.16409 -0.395204,0.626794 0,0.226915 -0.02626,0.361093 -0.07068,0.361093 -0.04655,0 -0.05791,0.07866 -0.03329,0.230413 0.0478,0.294566 -0.06748,0.756597 -0.207474,0.831519 -0.07597,0.04066 -0.130771,0.202491 -0.1845,0.544827 -0.04204,0.267845 -0.09202,0.553056 -0.111076,0.633803 -0.02756,0.116776 -0.01177,0.142349 0.07717,0.125 0.08305,-0.0162 0.164557,-0.198656 0.316854,-0.709312 l 0.205039,-0.6875 0.004,0.664687 c 0.0038,0.640575 -0.0016,0.66837 -0.150975,0.766214 -0.213545,0.139919 -0.337882,0.405166 -0.437253,0.932791 -0.149896,0.79588 -0.295608,2.933657 -0.377784,5.542558 -0.02111,0.670312 -0.07873,1.874631 -0.128041,2.676262 -0.04931,0.801632 -0.07186,1.532882 -0.05011,1.625 0.10337,0.437844 0.579746,0.603605 0.827931,0.288089 z m 1.093545,-7.761226 c 0.02553,-0.289015 0.01724,-0.453125 -0.0229,-0.453125 -0.03462,0 -0.06294,0.151172 -0.06294,0.335937 0,0.184766 -0.01594,0.43086 -0.03541,0.546875 -0.0242,0.144151 -0.01695,0.181255 0.0229,0.117188 0.03207,-0.05156 0.07633,-0.297656 0.09835,-0.546875 z m -2.325606,-3.331997 c 0.189975,-0.894513 0.157406,-0.824523 0.330811,-0.710904 0.223979,0.146757 0.480967,0.09508 0.548988,-0.110405 0.05102,-0.154129 -0.01547,-0.369876 -0.249922,-0.810935 -0.01239,-0.0233 0.05584,-0.05143 0.151611,-0.0625 0.244743,-0.0283 0.331268,-0.242937 0.332358,-0.824458 8.44e-4,-0.450914 0.0191,-0.521745 0.219422,-0.851516 0.120175,-0.19783 0.26049,-0.394539 0.311812,-0.437132 0.09314,-0.0773 0.07479,-0.188278 -0.03114,-0.188278 -0.03077,0 -0.155674,0.130607 -0.277561,0.290238 l -0.221613,0.290237 v -0.383987 c 0,-0.300655 -0.02713,-0.411116 -0.125,-0.508988 -0.140557,-0.140557 -0.207667,-0.152054 -0.372535,-0.06382 -0.192344,0.102939 -0.252402,0.419583 -0.253925,1.33877 l -0.0015,0.881299 -0.170415,-0.311207 c -0.278824,-0.509181 -0.711096,-0.555232 -0.751895,-0.0801 -0.01438,0.16745 0.05809,0.369253 0.298957,0.832451 l 0.317936,0.611418 -0.158331,0.705804 c -0.176306,0.785928 -0.193815,0.98263 -0.08422,0.946098 0.04076,-0.01359 0.124516,-0.262026 0.186118,-0.552084 z"
     id="path4496" />
  <path
     d="m -22.594035,15.55454 6.475,-3.908 c 1.394193,-0.841521 3.139808,-0.841521 4.534,0 l 6.475,3.907 c 1.316114,0.794393 2.1204,2.219723 2.12,3.757 v 9.665999 c 0,1.536919 -0.804191,2.961791 -2.12,3.756 l -6.475,3.907 c -1.394192,0.841521 -3.139807,0.841521 -4.534,0 l -6.475,-3.907 c -1.315808,-0.794209 -2.12,-2.219081 -2.12,-3.756 V 19.31054 c 0,-1.538001 0.804,-2.962 2.12,-3.757 z"
     id="Path-0"
     stroke="#ffffff"
     stroke-width="2"
     fill="#FC4848"
     style="opacity:1;fill:none"
     clip-path="url(#clipPath4348)"
     transform="translate(25.714035,-10.016145)" />
</svg>
