<svg width="56" height="46" viewBox="0 0 56 46" fill="none" xmlns="http://www.w3.org/2000/svg"><path opacity="0.2" d="M34.2346 3.25135C35.3157 2.1269 34.7053 0.276787 33.1512 0.143156C32.0512 0.0485729 30.9331 0 29.8002 0C13.342 0 0 10.2517 0 22.8979C0 26.3985 1.02236 29.7157 2.85016 32.6827C3.47761 33.7012 4.88715 33.7751 5.71626 32.9128L34.2346 3.25135Z" fill="#C1BBFF"/><path opacity="0.2" d="M55.0956 12.5232C53.355 9.61295 49.8187 6.87336 47.222 5.2108C46.2419 4.58325 44.9773 4.77044 44.1617 5.60072C34.5036 15.4329 18.3375 31.8499 12.0501 38.0428C10.9725 39.1041 10.9961 40.8689 12.2491 41.7161C16.2272 44.4059 20.9122 45.5851 23.4853 45.9073C24.1854 45.995 24.8658 45.7259 25.3692 45.2315C34.7752 35.9935 50.2042 19.9016 54.7168 15.088C55.3788 14.3818 55.5924 13.3539 55.0956 12.5232Z" fill="#CE82FF"/></svg>